<svg width="96" height="19" viewBox="0 0 96 19" fill="none" xmlns="http://www.w3.org/2000/svg">
<path d="M0.5 3.816V0.659999H3.908V3.816H0.5ZM0.536 18V5.592H3.884V18H0.536ZM7.34244 18V0.647999H13.7264C14.9904 0.647999 16.1224 0.867999 17.1224 1.308C18.1224 1.74 18.9104 2.38 19.4864 3.228C20.0704 4.076 20.3624 5.112 20.3624 6.336C20.3624 8.064 19.7984 9.408 18.6704 10.368C17.5504 11.328 16.0544 11.808 14.1824 11.808H10.8704V18H7.34244ZM10.8344 9.096H14.0864C14.9584 9.096 15.6744 8.816 16.2344 8.256C16.8024 7.688 17.0864 6.988 17.0864 6.156C17.0864 5.292 16.7904 4.608 16.1984 4.104C15.6064 3.592 14.8864 3.336 14.0384 3.336H10.8344V9.096ZM22.5547 18V5.592H25.9267V8.532C26.2227 7.58 26.7067 6.812 27.3787 6.228C28.0507 5.644 28.8787 5.352 29.8627 5.352C30.1267 5.352 30.3067 5.376 30.4027 5.424V8.76C30.3307 8.736 30.2427 8.72 30.1387 8.712C30.0427 8.696 29.9547 8.684 29.8747 8.676C28.4907 8.556 27.5067 8.74 26.9227 9.228C26.3467 9.716 26.0587 10.376 26.0587 11.208V18H22.5547ZM37.8339 18.24C36.6179 18.24 35.5579 17.98 34.6539 17.46C33.7579 16.94 33.0619 16.204 32.5659 15.252C32.0779 14.3 31.8339 13.172 31.8339 11.868C31.8339 10.564 32.0779 9.424 32.5659 8.448C33.0539 7.472 33.7499 6.712 34.6539 6.168C35.5579 5.624 36.6219 5.352 37.8459 5.352C39.0699 5.352 40.1259 5.62 41.0139 6.156C41.9099 6.692 42.6019 7.448 43.0899 8.424C43.5859 9.392 43.8339 10.54 43.8339 11.868C43.8339 13.116 43.5939 14.22 43.1139 15.18C42.6419 16.132 41.9579 16.88 41.0619 17.424C40.1739 17.968 39.0979 18.24 37.8339 18.24ZM37.8459 15.636C38.4619 15.636 38.9579 15.456 39.3339 15.096C39.7099 14.736 39.9819 14.264 40.1499 13.68C40.3179 13.088 40.4019 12.444 40.4019 11.748C40.4019 11.092 40.3219 10.476 40.1619 9.9C40.0099 9.316 39.7459 8.844 39.3699 8.484C39.0019 8.116 38.4939 7.932 37.8459 7.932C37.2299 7.932 36.7299 8.104 36.3459 8.448C35.9619 8.792 35.6819 9.252 35.5059 9.828C35.3379 10.404 35.2539 11.044 35.2539 11.748C35.2539 12.396 35.3339 13.02 35.4939 13.62C35.6539 14.212 35.9219 14.696 36.2979 15.072C36.6739 15.448 37.1899 15.636 37.8459 15.636ZM51.6266 18.24C50.4746 18.24 49.4466 17.984 48.5426 17.472C47.6386 16.96 46.9266 16.228 46.4066 15.276C45.8946 14.316 45.6386 13.172 45.6386 11.844C45.6386 10.564 45.8866 9.436 46.3826 8.46C46.8786 7.484 47.5746 6.724 48.4706 6.18C49.3666 5.628 50.4186 5.352 51.6266 5.352C52.6666 5.352 53.5626 5.564 54.3146 5.988C55.0746 6.412 55.6706 6.984 56.1026 7.704C56.5426 8.424 56.7946 9.228 56.8586 10.116H53.9426C53.8626 9.62 53.6386 9.148 53.2706 8.7C52.9106 8.244 52.3706 8.016 51.6506 8.016C50.8346 8.016 50.1706 8.332 49.6586 8.964C49.1546 9.588 48.9026 10.54 48.9026 11.82C48.9026 13.036 49.1506 13.996 49.6466 14.7C50.1426 15.404 50.8346 15.756 51.7226 15.756C52.1946 15.756 52.5866 15.64 52.8986 15.408C53.2186 15.176 53.4666 14.9 53.6426 14.58C53.8186 14.252 53.9306 13.948 53.9786 13.668H56.8226C56.7666 14.524 56.5186 15.3 56.0786 15.996C55.6386 16.684 55.0386 17.232 54.2786 17.64C53.5186 18.04 52.6346 18.24 51.6266 18.24ZM65.0047 18.24C63.7727 18.24 62.6887 17.984 61.7527 17.472C60.8247 16.952 60.1007 16.22 59.5807 15.276C59.0607 14.332 58.8007 13.22 58.8007 11.94C58.8007 10.7 59.0367 9.584 59.5087 8.592C59.9887 7.592 60.6767 6.804 61.5727 6.228C62.4687 5.644 63.5527 5.352 64.8247 5.352C66.0887 5.352 67.1487 5.62 68.0047 6.156C68.8607 6.684 69.5087 7.424 69.9487 8.376C70.3887 9.32 70.6087 10.412 70.6087 11.652V12.6H62.2687C62.2607 13.552 62.4887 14.308 62.9527 14.868C63.4247 15.428 64.0807 15.708 64.9207 15.708C65.5207 15.708 66.0447 15.58 66.4927 15.324C66.9407 15.068 67.2567 14.648 67.4407 14.064H70.5967C70.4527 14.944 70.1007 15.696 69.5407 16.32C68.9807 16.944 68.2967 17.42 67.4887 17.748C66.6887 18.076 65.8607 18.24 65.0047 18.24ZM62.2687 10.512H67.3327C67.3327 9.76 67.1247 9.12 66.7087 8.592C66.2927 8.064 65.6607 7.8 64.8127 7.8C64.2767 7.8 63.8167 7.932 63.4327 8.196C63.0567 8.46 62.7647 8.8 62.5567 9.216C62.3567 9.624 62.2607 10.056 62.2687 10.512ZM78.0779 18.24C77.2139 18.24 76.3819 18.1 75.5819 17.82C74.7899 17.532 74.1139 17.084 73.5539 16.476C73.0019 15.868 72.6539 15.072 72.5099 14.088H75.5339C75.6939 14.752 76.0339 15.212 76.5539 15.468C77.0819 15.716 77.5859 15.84 78.0659 15.84C78.7299 15.84 79.2699 15.736 79.6859 15.528C80.1019 15.312 80.3099 14.984 80.3099 14.544C80.3099 14.208 80.1859 13.94 79.9379 13.74C79.6979 13.54 79.2979 13.388 78.7379 13.284L76.5539 12.828C75.4499 12.596 74.5659 12.204 73.9019 11.652C73.2379 11.092 72.9019 10.3 72.8939 9.276C72.8859 8.156 73.3259 7.224 74.2139 6.48C75.1099 5.728 76.4059 5.352 78.1019 5.352C79.6299 5.352 80.8499 5.692 81.7619 6.372C82.6739 7.044 83.1419 7.988 83.1659 9.204H80.2379C80.1499 8.724 79.9099 8.356 79.5179 8.1C79.1339 7.836 78.6459 7.704 78.0539 7.704C77.4539 7.704 76.9579 7.812 76.5659 8.028C76.1739 8.244 75.9779 8.572 75.9779 9.012C75.9779 9.34 76.1339 9.6 76.4459 9.792C76.7659 9.976 77.2659 10.136 77.9459 10.272L79.9619 10.728C80.8819 10.952 81.5819 11.28 82.0619 11.712C82.5419 12.144 82.8699 12.6 83.0459 13.08C83.2219 13.552 83.3099 13.976 83.3099 14.352C83.3099 15.592 82.8259 16.552 81.8579 17.232C80.8899 17.904 79.6299 18.24 78.0779 18.24ZM90.6404 18.24C89.7764 18.24 88.9444 18.1 88.1444 17.82C87.3524 17.532 86.6764 17.084 86.1164 16.476C85.5644 15.868 85.2164 15.072 85.0724 14.088H88.0964C88.2564 14.752 88.5964 15.212 89.1164 15.468C89.6444 15.716 90.1484 15.84 90.6284 15.84C91.2924 15.84 91.8324 15.736 92.2484 15.528C92.6644 15.312 92.8724 14.984 92.8724 14.544C92.8724 14.208 92.7484 13.94 92.5004 13.74C92.2604 13.54 91.8604 13.388 91.3004 13.284L89.1164 12.828C88.0124 12.596 87.1284 12.204 86.4644 11.652C85.8004 11.092 85.4644 10.3 85.4564 9.276C85.4484 8.156 85.8884 7.224 86.7764 6.48C87.6724 5.728 88.9684 5.352 90.6644 5.352C92.1924 5.352 93.4124 5.692 94.3244 6.372C95.2364 7.044 95.7044 7.988 95.7284 9.204H92.8004C92.7124 8.724 92.4724 8.356 92.0804 8.1C91.6964 7.836 91.2084 7.704 90.6164 7.704C90.0164 7.704 89.5204 7.812 89.1284 8.028C88.7364 8.244 88.5404 8.572 88.5404 9.012C88.5404 9.34 88.6964 9.6 89.0084 9.792C89.3284 9.976 89.8284 10.136 90.5084 10.272L92.5244 10.728C93.4444 10.952 94.1444 11.28 94.6244 11.712C95.1044 12.144 95.4324 12.6 95.6084 13.08C95.7844 13.552 95.8724 13.976 95.8724 14.352C95.8724 15.592 95.3884 16.552 94.4204 17.232C93.4524 17.904 92.1924 18.24 90.6404 18.24Z" fill="black"/>
</svg>
