<svg width="76" height="7" viewBox="0 0 76 7" fill="none" xmlns="http://www.w3.org/2000/svg">
<path d="M3.104 6.192C2.552 6.192 2.048 6.056 1.592 5.784C1.136 5.512 0.772 5.148 0.5 4.692C0.236 4.228 0.104 3.72 0.104 3.168C0.104 2.616 0.236 2.116 0.5 1.668C0.772 1.212 1.136 0.848 1.592 0.576C2.048 0.303999 2.552 0.167999 3.104 0.167999C3.656 0.167999 4.16 0.303999 4.616 0.576C5.072 0.848 5.436 1.212 5.708 1.668C5.98 2.116 6.116 2.616 6.116 3.168C6.116 3.72 5.98 4.228 5.708 4.692C5.436 5.148 5.072 5.512 4.616 5.784C4.16 6.056 3.656 6.192 3.104 6.192ZM16.979 6.192C16.427 6.192 15.923 6.056 15.467 5.784C15.011 5.512 14.647 5.148 14.375 4.692C14.111 4.228 13.979 3.72 13.979 3.168C13.979 2.616 14.111 2.116 14.375 1.668C14.647 1.212 15.011 0.848 15.467 0.576C15.923 0.303999 16.427 0.167999 16.979 0.167999C17.531 0.167999 18.035 0.303999 18.491 0.576C18.947 0.848 19.311 1.212 19.583 1.668C19.855 2.116 19.991 2.616 19.991 3.168C19.991 3.72 19.855 4.228 19.583 4.692C19.311 5.148 18.947 5.512 18.491 5.784C18.035 6.056 17.531 6.192 16.979 6.192ZM30.854 6.192C30.302 6.192 29.798 6.056 29.342 5.784C28.886 5.512 28.522 5.148 28.25 4.692C27.986 4.228 27.854 3.72 27.854 3.168C27.854 2.616 27.986 2.116 28.25 1.668C28.522 1.212 28.886 0.848 29.342 0.576C29.798 0.303999 30.302 0.167999 30.854 0.167999C31.406 0.167999 31.91 0.303999 32.366 0.576C32.822 0.848 33.186 1.212 33.458 1.668C33.73 2.116 33.866 2.616 33.866 3.168C33.866 3.72 33.73 4.228 33.458 4.692C33.186 5.148 32.822 5.512 32.366 5.784C31.91 6.056 31.406 6.192 30.854 6.192ZM44.729 6.192C44.177 6.192 43.673 6.056 43.217 5.784C42.761 5.512 42.397 5.148 42.125 4.692C41.861 4.228 41.729 3.72 41.729 3.168C41.729 2.616 41.861 2.116 42.125 1.668C42.397 1.212 42.761 0.848 43.217 0.576C43.673 0.303999 44.177 0.167999 44.729 0.167999C45.281 0.167999 45.785 0.303999 46.241 0.576C46.697 0.848 47.061 1.212 47.333 1.668C47.605 2.116 47.741 2.616 47.741 3.168C47.741 3.72 47.605 4.228 47.333 4.692C47.061 5.148 46.697 5.512 46.241 5.784C45.785 6.056 45.281 6.192 44.729 6.192ZM58.604 6.192C58.052 6.192 57.548 6.056 57.092 5.784C56.636 5.512 56.272 5.148 56 4.692C55.736 4.228 55.604 3.72 55.604 3.168C55.604 2.616 55.736 2.116 56 1.668C56.272 1.212 56.636 0.848 57.092 0.576C57.548 0.303999 58.052 0.167999 58.604 0.167999C59.156 0.167999 59.66 0.303999 60.116 0.576C60.572 0.848 60.936 1.212 61.208 1.668C61.48 2.116 61.616 2.616 61.616 3.168C61.616 3.72 61.48 4.228 61.208 4.692C60.936 5.148 60.572 5.512 60.116 5.784C59.66 6.056 59.156 6.192 58.604 6.192ZM72.479 6.192C71.927 6.192 71.423 6.056 70.967 5.784C70.511 5.512 70.147 5.148 69.875 4.692C69.611 4.228 69.479 3.72 69.479 3.168C69.479 2.616 69.611 2.116 69.875 1.668C70.147 1.212 70.511 0.848 70.967 0.576C71.423 0.303999 71.927 0.167999 72.479 0.167999C73.031 0.167999 73.535 0.303999 73.991 0.576C74.447 0.848 74.811 1.212 75.083 1.668C75.355 2.116 75.491 2.616 75.491 3.168C75.491 3.72 75.355 4.228 75.083 4.692C74.811 5.148 74.447 5.512 73.991 5.784C73.535 6.056 73.031 6.192 72.479 6.192Z" fill="black"/>
</svg>
